<mxfile host="app.diagrams.net" modified="2021-11-03T03:22:08.945Z" agent="5.0 (Windows NT 10.0; Win64; x64) AppleWebKit/537.36 (KHTML, like Gecko) Chrome/95.0.4638.54 Safari/537.36" etag="XrxZ5WBWWRzkuGHt4zKo" version="15.6.6" type="github">
  <diagram id="ftjTaf9PWsFtBsytyqsU" name="Page-1">
    <mxGraphModel dx="813" dy="602" grid="1" gridSize="10" guides="1" tooltips="1" connect="1" arrows="1" fold="1" page="1" pageScale="1" pageWidth="827" pageHeight="1169" math="0" shadow="0">
      <root>
        <mxCell id="0" />
        <mxCell id="1" parent="0" />
        <mxCell id="y5k3fRlYoRIaT1v6VFZf-3" value="" style="edgeStyle=orthogonalEdgeStyle;rounded=0;orthogonalLoop=1;jettySize=auto;html=1;fontColor=default;" edge="1" parent="1" source="y5k3fRlYoRIaT1v6VFZf-1" target="y5k3fRlYoRIaT1v6VFZf-2">
          <mxGeometry relative="1" as="geometry" />
        </mxCell>
        <mxCell id="y5k3fRlYoRIaT1v6VFZf-7" value="" style="edgeStyle=orthogonalEdgeStyle;rounded=0;orthogonalLoop=1;jettySize=auto;html=1;fontColor=default;" edge="1" parent="1" source="y5k3fRlYoRIaT1v6VFZf-1" target="y5k3fRlYoRIaT1v6VFZf-6">
          <mxGeometry relative="1" as="geometry" />
        </mxCell>
        <mxCell id="y5k3fRlYoRIaT1v6VFZf-1" value="基础图形" style="rounded=0;whiteSpace=wrap;html=1;fillColor=default;strokeColor=default;fontColor=default;" vertex="1" parent="1">
          <mxGeometry x="354" y="90" width="120" height="60" as="geometry" />
        </mxCell>
        <mxCell id="y5k3fRlYoRIaT1v6VFZf-5" value="" style="edgeStyle=orthogonalEdgeStyle;rounded=0;orthogonalLoop=1;jettySize=auto;html=1;fontColor=default;" edge="1" parent="1" source="y5k3fRlYoRIaT1v6VFZf-2" target="y5k3fRlYoRIaT1v6VFZf-4">
          <mxGeometry relative="1" as="geometry" />
        </mxCell>
        <mxCell id="y5k3fRlYoRIaT1v6VFZf-2" value="streamlit-components适配层" style="whiteSpace=wrap;html=1;rounded=0;" vertex="1" parent="1">
          <mxGeometry x="354" y="230" width="120" height="60" as="geometry" />
        </mxCell>
        <mxCell id="y5k3fRlYoRIaT1v6VFZf-4" value="渲染" style="whiteSpace=wrap;html=1;rounded=0;" vertex="1" parent="1">
          <mxGeometry x="354" y="370" width="120" height="60" as="geometry" />
        </mxCell>
        <mxCell id="y5k3fRlYoRIaT1v6VFZf-6" value="其他平台" style="whiteSpace=wrap;html=1;rounded=0;" vertex="1" parent="1">
          <mxGeometry x="554" y="90" width="120" height="60" as="geometry" />
        </mxCell>
      </root>
    </mxGraphModel>
  </diagram>
</mxfile>
